<svg width="1229" height="1089" viewBox="0 0 1229 1089" fill="none" xmlns="http://www.w3.org/2000/svg">
<g clip-path="url(#clip0)">
<rect width="1229" height="1089" fill="white"/>
<path d="M853.378 11.4164L1044.74 11.4159C1082.21 11.4159 1112.59 41.576 1112.59 78.7801" stroke="#4484AB" stroke-width="10" stroke-linecap="round" stroke-linejoin="round"/>
<path d="M1219.59 359.366V231.655C1219.59 206.645 1199.19 186.373 1174.04 186.373C1148.89 186.373 1128.5 206.645 1128.5 231.655V251.421" stroke="white" stroke-width="10" stroke-linecap="round" stroke-linejoin="round"/>
<path d="M370.789 938.01C375.666 938.01 379.618 934.058 379.618 929.185C379.618 924.31 375.666 920.36 370.789 920.36V938.01ZM278.949 738.789C281.337 734.538 279.825 729.159 275.573 726.772C271.323 724.386 265.941 725.897 263.553 730.147L278.949 738.789ZM450.623 681.553C455.5 681.553 459.452 677.602 459.452 672.728C459.452 667.854 455.5 663.904 450.623 663.904V681.553ZM297.444 689.512C293.599 692.507 292.91 698.053 295.906 701.897C298.903 705.743 304.449 706.431 308.297 703.436L297.444 689.512ZM370.789 920.36C311.913 920.36 262.847 867.848 262.847 801.345H245.189C245.189 876.05 300.683 938.01 370.789 938.01V920.36ZM262.847 801.345C262.847 778.347 268.757 756.931 278.949 738.789L263.553 730.147C251.883 750.918 245.189 775.31 245.189 801.345H262.847ZM450.623 663.904H371.071V681.553H450.623V663.904ZM371.071 663.904C343.527 663.904 318.087 673.44 297.444 689.512L308.297 703.436C326.038 689.621 347.706 681.553 371.071 681.553V663.904Z" fill="#1DC9FF"/>
<path d="M832.068 435.679C856.175 435.679 875.717 455.114 875.717 479.088C875.717 503.061 856.175 522.496 832.068 522.496C807.962 522.496 788.421 503.061 788.421 479.088V316.876" stroke="white" stroke-width="10" stroke-linecap="round" stroke-linejoin="round"/>
<path d="M52.4771 440.33C28.3708 440.33 8.82903 459.572 8.82903 483.309C8.82903 507.049 28.3708 526.291 52.4771 526.291C76.5831 526.291 96.1251 507.049 96.1251 483.309V307.77" stroke="#4484AB" stroke-width="10" stroke-linecap="round" stroke-linejoin="round"/>
<path fill-rule="evenodd" clip-rule="evenodd" d="M845.352 141.985C845.352 101.547 877.796 68.766 917.818 68.766H992.266C1032.29 68.766 1064.73 101.547 1064.73 141.985C1064.73 182.423 1032.29 215.204 992.266 215.204H917.818C877.796 215.204 845.352 182.423 845.352 141.985Z" stroke="#FDB314" stroke-width="10" stroke-linecap="round" stroke-linejoin="round"/>
<path d="M1148.99 483.8H1085.22C1039.11 483.8 1001.73 521.507 1001.73 568.02" stroke="#4484AB" stroke-width="10" stroke-linecap="round" stroke-linejoin="round"/>
<path d="M1219.59 766.813C1219.59 791.117 1200.05 810.82 1175.94 810.82C1151.83 810.82 1132.29 791.117 1132.29 766.813" stroke="#34C69F" stroke-width="10" stroke-linecap="round" stroke-linejoin="round"/>
<path d="M431.646 61.1072C431.646 86.289 452.037 106.703 477.191 106.703C502.345 106.703 522.736 86.289 522.736 61.1072V9.58368" stroke="#34C69F" stroke-width="10" stroke-linecap="round" stroke-linejoin="round"/>
<path fill-rule="evenodd" clip-rule="evenodd" d="M451.382 337.362C468.152 337.362 481.747 323.774 481.747 307.012C481.747 290.251 468.152 276.662 451.382 276.662C434.612 276.662 421.019 290.251 421.019 307.012C421.019 323.774 434.612 337.362 451.382 337.362Z" stroke="#34C69F" stroke-width="10" stroke-linecap="round" stroke-linejoin="round"/>
<path fill-rule="evenodd" clip-rule="evenodd" d="M144.708 251.624C171.12 251.624 192.531 230.222 192.531 203.823C192.531 177.422 171.12 156.022 144.708 156.022C118.296 156.022 96.8848 177.422 96.8848 203.823C96.8848 230.222 118.296 251.624 144.708 251.624Z" stroke="#34C69F" stroke-width="10" stroke-linecap="round" stroke-linejoin="round"/>
<path d="M254.398 322.946C230.291 322.946 210.749 342.479 210.749 366.575C210.749 390.669 230.291 410.202 254.398 410.202C278.503 410.202 298.045 390.669 298.045 366.575V322.946" stroke="#34C69F" stroke-width="10" stroke-linecap="round" stroke-linejoin="round"/>
<path d="M1114.82 668.934C1114.82 694.496 1135.22 715.217 1160.38 715.217C1185.53 715.217 1205.92 694.496 1205.92 668.934C1205.92 643.373 1185.53 622.65 1160.38 622.65H1007.8" stroke="#34C69F" stroke-width="10" stroke-linecap="round" stroke-linejoin="round"/>
<path d="M699.545 1036.17C699.545 1011.86 719.101 992.16 743.224 992.16C767.346 992.16 786.903 1011.86 786.903 1036.17C786.903 1060.47 767.346 1080.18 743.224 1080.18H673.797" stroke="#34C69F" stroke-width="10" stroke-linecap="round" stroke-linejoin="round"/>
<path d="M1142.65 560.434C1185.15 560.434 1219.59 525.443 1219.59 482.282C1219.59 439.121 1185.15 404.132 1142.65 404.132H940.999" stroke="#34C69F" stroke-width="10" stroke-linecap="round" stroke-linejoin="round"/>
<path d="M575.114 509.597V685.352C575.114 737.885 618.106 780.471 671.14 780.471C724.174 780.471 767.166 737.885 767.166 685.352V643.827" stroke="#34C69F" stroke-width="10" stroke-linecap="round" stroke-linejoin="round"/>
<path d="M382.304 807.027H540.047C600.08 807.027 648.748 855.943 648.748 916.285C648.748 976.625 600.08 1025.54 540.047 1025.54H492.592" stroke="#34C69F" stroke-width="10" stroke-linecap="round" stroke-linejoin="round"/>
<path d="M832.068 366.952H874.716C903.356 366.952 926.576 345.042 926.576 318.014C926.576 290.985 903.356 269.075 874.716 269.075H789.422C760.779 269.075 737.561 290.985 737.561 318.014" stroke="#34C69F" stroke-width="10" stroke-linecap="round" stroke-linejoin="round"/>
<path d="M517.423 162.85H415.187C350.491 162.85 298.045 215.504 298.045 280.455" stroke="#34C69F" stroke-width="10" stroke-linecap="round" stroke-linejoin="round"/>
<path d="M778.552 952.706C778.552 908.288 814.114 872.278 857.98 872.278H997.932" stroke="#34C69F" stroke-width="10" stroke-linecap="round" stroke-linejoin="round"/>
<path d="M38.8134 256.176C38.8134 263.243 38.8134 352.194 38.8134 395.785" stroke="#34C69F" stroke-width="10" stroke-linecap="round" stroke-linejoin="round"/>
<path d="M831.309 577.126C831.309 582.963 831.309 656.445 831.309 692.456" stroke="#34C69F" stroke-width="10" stroke-linecap="round" stroke-linejoin="round"/>
<path d="M714.409 890.488C714.409 892.869 714.409 922.838 714.409 937.53" stroke="#34C69F" stroke-width="10" stroke-linecap="round" stroke-linejoin="round"/>
<path d="M145.087 307.77C203.989 307.77 251.74 260.723 251.74 202.685C251.74 144.647 203.989 97.5984 145.087 97.5984C86.1843 97.5984 38.4338 144.647 38.4338 202.685" stroke="#FDB314" stroke-width="10" stroke-linecap="round" stroke-linejoin="round"/>
<path d="M527.825 307.77C527.825 264.609 493.38 229.62 450.889 229.62C408.399 229.62 373.953 264.609 373.953 307.77C373.953 350.932 408.399 385.923 450.889 385.923H652.542" stroke="#FDB314" stroke-width="10" stroke-linecap="round" stroke-linejoin="round"/>
<path fill-rule="evenodd" clip-rule="evenodd" d="M207.332 669.693C182.388 669.693 162.166 649.515 162.166 624.624V496.243C162.166 471.353 182.388 451.174 207.332 451.174C232.277 451.174 252.498 471.353 252.498 496.243V624.624C252.498 649.515 232.277 669.693 207.332 669.693Z" stroke="#FDB314" stroke-width="10" stroke-linecap="round" stroke-linejoin="round"/>
<path d="M698.847 250.053V255.963C698.847 289.603 671.488 316.876 637.74 316.876C603.992 316.876 576.632 289.603 576.632 255.963V70.4966C576.632 36.8553 603.992 9.58368 637.74 9.58368C671.488 9.58368 698.847 36.8553 698.847 70.4966V72.3149" stroke="#FDB314" stroke-width="10" stroke-linecap="round" stroke-linejoin="round"/>
<path d="M59.4986 731.151H55.8468C29.8797 731.151 8.82903 752.213 8.82903 778.194C8.82903 804.174 29.8795 825.236 55.8468 825.236H164.49C190.458 825.236 211.508 804.174 211.508 778.194C211.508 752.213 190.458 731.151 164.49 731.151H160.838" stroke="#FDB314" stroke-width="10" stroke-linecap="round" stroke-linejoin="round"/>
<path d="M949.828 454.208C949.828 449.335 945.874 445.383 940.999 445.383C936.122 445.383 932.17 449.335 932.17 454.208H949.828ZM854.141 727.718C849.266 727.718 845.312 731.669 845.312 736.543C845.312 741.417 849.266 745.368 854.141 745.368V727.718ZM729.21 828.551C724.335 828.551 720.381 832.502 720.381 837.376C720.381 842.251 724.335 846.201 729.21 846.201V828.551ZM834.415 761.454C834.415 756.581 830.463 752.63 825.586 752.63C820.711 752.63 816.757 756.581 816.757 761.454H834.415ZM932.17 454.208V562.203H949.828V454.208H932.17ZM932.17 562.203C932.17 574.252 922.303 584.133 909.977 584.133V601.783C931.918 601.783 949.828 584.136 949.828 562.203H932.17ZM909.977 584.133C888.034 584.133 870.128 601.795 870.128 623.727H887.787C887.787 611.67 897.657 601.783 909.977 601.783V584.133ZM870.128 623.727V630.107H887.787V623.727H870.128ZM870.128 630.107C870.128 652.037 888.034 669.701 909.977 669.701V652.051C897.657 652.051 887.787 642.162 887.787 630.107H870.128ZM909.977 669.701C922.299 669.701 932.17 679.589 932.17 691.644H949.828C949.828 669.714 931.923 652.051 909.977 652.051V669.701ZM932.17 691.644V698.709H949.828V691.644H932.17ZM932.17 698.709C932.17 714.666 919.108 727.718 902.854 727.718V745.368C928.734 745.368 949.828 724.541 949.828 698.709H932.17ZM902.854 727.718H883.093V745.368H902.854V727.718ZM883.093 727.718H854.141V745.368H883.093V727.718ZM729.21 846.201H749.536V828.551H729.21V846.201ZM749.536 846.201C796.404 846.201 834.415 808.269 834.415 761.454H816.757C816.757 798.502 786.671 828.551 749.536 828.551V846.201Z" fill="#FDB314"/>
<path d="M1219.59 126.431C1189.4 126.431 1164.93 101.802 1164.93 71.4214C1164.93 41.0408 1189.4 16.4124 1219.59 16.4124" stroke="#DC462D" stroke-width="10" stroke-linecap="round" stroke-linejoin="round"/>
<path d="M515.905 750.247C520.782 750.247 524.734 746.297 524.734 741.422C524.734 736.549 520.782 732.597 515.905 732.597V750.247ZM435.914 873.862C440.789 873.862 444.743 869.912 444.743 865.037C444.743 860.164 440.789 856.212 435.914 856.212V873.862ZM283.5 1089C288.377 1089 292.329 1085.05 292.329 1080.18C292.329 1075.3 288.377 1071.35 283.5 1071.35V1089ZM445.147 929.222C445.147 924.347 441.193 920.397 436.318 920.397C431.441 920.397 427.489 924.347 427.489 929.222H445.147ZM309.729 454.967C309.729 450.094 305.776 446.142 300.9 446.142C296.023 446.142 292.071 450.094 292.071 454.967H309.729ZM507.075 676.048C507.075 680.923 511.029 684.873 515.905 684.873C520.782 684.873 524.734 680.923 524.734 676.048H507.075ZM515.905 732.597H379.696V750.247H515.905V732.597ZM379.696 732.597C340.53 732.597 308.701 764.176 308.701 803.23H326.36C326.36 774.012 350.194 750.247 379.696 750.247V732.597ZM308.701 803.23C308.701 842.282 340.53 873.862 379.696 873.862V856.212C350.194 856.212 326.36 832.446 326.36 803.23H308.701ZM379.696 873.862H435.914V856.212H379.696V873.862ZM283.5 1071.35H275.381V1089H283.5V1071.35ZM275.381 1071.35C256.31 1071.35 240.833 1055.87 240.833 1036.77H223.175C223.175 1065.6 246.538 1089 275.381 1089V1071.35ZM240.833 1036.77C240.833 1017.66 256.312 1002.18 275.381 1002.18V984.534C246.538 984.534 223.175 1007.93 223.175 1036.77H240.833ZM275.381 1002.18H372.226V984.534H275.381V1002.18ZM372.226 1002.18C412.508 1002.18 445.147 969.51 445.147 929.222H427.489C427.489 959.781 402.738 984.534 372.226 984.534V1002.18ZM292.071 454.967V503.745H309.729V454.967H292.071ZM292.071 503.745C292.071 568.022 344.145 620.144 408.402 620.144V602.494C353.915 602.494 309.729 558.293 309.729 503.745H292.071ZM408.402 620.144H451.22V602.494H408.402V620.144ZM451.22 620.144C482.059 620.144 507.075 645.165 507.075 676.048H524.734C524.734 635.436 491.83 602.494 451.22 602.494V620.144Z" fill="#DC462D"/>
<path fill-rule="evenodd" clip-rule="evenodd" d="M534.882 959.534C559.199 959.534 578.91 940.001 578.91 915.906C578.91 891.812 559.199 872.278 534.882 872.278C510.567 872.278 490.855 891.812 490.855 915.906C490.855 940.001 510.567 959.534 534.882 959.534Z" stroke="#DC462D" stroke-width="10" stroke-linecap="round" stroke-linejoin="round"/>
<path d="M267.68 67.6278C267.68 99.6844 293.51 125.672 325.372 125.672C357.235 125.672 383.063 99.6844 383.063 67.6278C383.063 35.5709 357.235 9.58368 325.372 9.58368H267.68" stroke="#DC462D" stroke-width="10" stroke-linecap="round" stroke-linejoin="round"/>
<path d="M633.564 612.408V544.625C633.564 525.281 649.368 509.597 668.862 509.597C688.357 509.597 704.161 525.281 704.161 544.625V680.189C704.161 699.535 688.357 715.217 668.862 715.217C649.368 715.217 633.564 699.535 633.564 680.189V663.813" stroke="#DC462D" stroke-width="10" stroke-linecap="round" stroke-linejoin="round"/>
<path d="M1129.25 304.676V320.065C1129.25 341.771 1111.6 359.366 1089.82 359.366C1068.05 359.366 1050.39 341.771 1050.39 320.065V307.319C1050.39 285.777 1032.86 268.316 1011.26 268.316C989.643 268.316 972.121 285.777 972.121 307.319V323.006" stroke="#DC462D" stroke-width="10" stroke-linecap="round" stroke-linejoin="round"/>
<path d="M738.32 114.891C711.489 114.891 689.737 136.327 689.737 162.771C689.737 189.214 711.489 210.652 738.32 210.652C765.15 210.652 786.901 189.214 786.901 162.771V8.82495" stroke="#1DC9FF" stroke-width="10" stroke-linecap="round" stroke-linejoin="round"/>
<path d="M449.863 540.707H412.526C387.449 540.707 367.121 520.323 367.121 495.181C367.121 470.039 387.449 449.656 412.526 449.656H487.201C512.278 449.656 532.606 470.039 532.606 495.181V499.226C532.606 522.134 514.082 540.707 491.234 540.707" stroke="#1DC9FF" stroke-width="10" stroke-linecap="round" stroke-linejoin="round"/>
<path d="M572.078 449.656H646.752C696.905 449.656 737.561 408.892 737.561 358.608" stroke="#1DC9FF" stroke-width="10" stroke-linecap="round" stroke-linejoin="round"/>
<path d="M1007.8 687.145V727.93C1007.8 769.099 974.398 802.473 933.189 802.473H874.956" stroke="#1DC9FF" stroke-width="10" stroke-linecap="round" stroke-linejoin="round"/>
<path fill-rule="evenodd" clip-rule="evenodd" d="M831.689 984.548C831.689 953.975 856.498 929.185 887.103 929.185C917.705 929.185 942.518 953.975 942.518 984.548V1024.81C942.518 1055.39 917.705 1080.18 887.103 1080.18C856.498 1080.18 831.689 1055.39 831.689 1024.81V984.548Z" stroke="#1DC9FF" stroke-width="10" stroke-linecap="round" stroke-linejoin="round"/>
</g>
<defs>
<clipPath id="clip0">
<rect width="1229" height="1089" fill="white"/>
</clipPath>
</defs>
</svg>
